<svg xmlns="http://www.w3.org/2000/svg" xmlns:xlink="http://www.w3.org/1999/xlink" contentStyleType="text/css" data-diagram-type="CLASS" height="1236px" preserveAspectRatio="none" style="width:1688px;height:1236px;background:#FFFFFF;" version="1.1" viewBox="0 0 1688 1236" width="1688px" zoomAndPan="magnify"><defs/><g><!--cluster stpa--><g id="cluster_stpa"><path d="M8.5,6 L43.9941,6 A3.75,3.75 0 0 1 46.4941,8.5 L53.4941,28.2969 L1678.5,28.2969 A2.5,2.5 0 0 1 1681,30.7969 L1681,1208.62 A2.5,2.5 0 0 1 1678.5,1211.12 L8.5,1211.12 A2.5,2.5 0 0 1 6,1208.62 L6,8.5 A2.5,2.5 0 0 1 8.5,6 " fill="#FFFFFF" fill-opacity="0.00000" style="stroke:#000000;stroke-width:1.5;"/><line style="stroke:#000000;stroke-width:1.5;" x1="6" x2="53.4941" y1="28.2969" y2="28.2969"/><text fill="#000000" font-family="sans-serif" font-size="14" font-weight="bold" lengthAdjust="spacing" textLength="34.4941" x="10" y="20.9951">stpa</text></g><!--cluster control_structures--><g id="cluster_control_structures"><path d="M32.5,57.14 L177.9844,57.14 A3.75,3.75 0 0 1 180.4844,59.64 L187.4844,79.4369 L541.5,79.4369 A2.5,2.5 0 0 1 544,81.9369 L544,540.76 A2.5,2.5 0 0 1 541.5,543.26 L32.5,543.26 A2.5,2.5 0 0 1 30,540.76 L30,59.64 A2.5,2.5 0 0 1 32.5,57.14 " fill="#FFFFFF" fill-opacity="0.00000" style="stroke:#000000;stroke-width:1.5;"/><line style="stroke:#000000;stroke-width:1.5;" x1="30" x2="187.4844" y1="79.4369" y2="79.4369"/><text fill="#000000" font-family="sans-serif" font-size="14" font-weight="bold" lengthAdjust="spacing" textLength="144.4844" x="34" y="72.1351">control_structures</text></g><!--cluster definitions--><g id="cluster_definitions"><path d="M570.5,49 L656.0811,49 A3.75,3.75 0 0 1 658.5811,51.5 L665.5811,71.2969 L1654.5,71.2969 A2.5,2.5 0 0 1 1657,73.7969 L1657,1184.62 A2.5,2.5 0 0 1 1654.5,1187.12 L570.5,1187.12 A2.5,2.5 0 0 1 568,1184.62 L568,51.5 A2.5,2.5 0 0 1 570.5,49 " fill="#FFFFFF" fill-opacity="0.00000" style="stroke:#000000;stroke-width:1.5;"/><line style="stroke:#000000;stroke-width:1.5;" x1="568" x2="665.5811" y1="71.2969" y2="71.2969"/><text fill="#000000" font-family="sans-serif" font-size="14" font-weight="bold" lengthAdjust="spacing" textLength="84.5811" x="572" y="63.9951">definitions</text></g><!--class ControlActionOrFeedback--><g id="elem_ControlActionOrFeedback"><rect codeLine="3" fill="#F1F1F1" height="113.1875" id="ControlActionOrFeedback" rx="2.5" ry="2.5" style="stroke:#181818;stroke-width:0.5;" width="211.2178" x="248.39" y="249.03"/><ellipse cx="263.39" cy="265.03" fill="#ADD1B2" rx="11" ry="11" style="stroke:#181818;stroke-width:1;"/><path d="M266.3588,270.6706 Q265.7806,270.9675 265.14,271.1081 Q264.4994,271.2644 263.7963,271.2644 Q261.2963,271.2644 259.9681,269.6237 Q258.6556,267.9675 258.6556,264.8425 Q258.6556,261.7175 259.9681,260.0612 Q261.2963,258.405 263.7963,258.405 Q264.4994,258.405 265.14,258.5612 Q265.7963,258.7175 266.3588,259.0144 L266.3588,261.7331 Q265.7338,261.155 265.14,260.8894 Q264.5463,260.6081 263.9213,260.6081 Q262.5775,260.6081 261.89,261.6862 Q261.2025,262.7487 261.2025,264.8425 Q261.2025,266.9362 261.89,268.0144 Q262.5775,269.0769 263.9213,269.0769 Q264.5463,269.0769 265.14,268.8112 Q265.7338,268.53 266.3588,267.9519 L266.3588,270.6706 Z " fill="#000000"/><text fill="#000000" font-family="sans-serif" font-size="14" lengthAdjust="spacing" textLength="179.2178" x="277.39" y="269.8767">ControlActionOrFeedback</text><line style="stroke:#181818;stroke-width:0.5;" x1="249.39" x2="458.6078" y1="281.03" y2="281.03"/><text fill="#000000" font-family="sans-serif" font-size="14" lengthAdjust="spacing" textLength="105.5469" x="254.39" y="298.0251">description: str</text><text fill="#000000" font-family="sans-serif" font-size="14" lengthAdjust="spacing" textLength="181.5283" x="254.39" y="314.322">control_type: ControlType</text><text fill="#000000" font-family="sans-serif" font-size="14" lengthAdjust="spacing" textLength="117.1338" x="254.39" y="330.6189">controller: Entity</text><text fill="#000000" font-family="sans-serif" font-size="14" lengthAdjust="spacing" textLength="120.2646" x="254.39" y="346.9157">controlled: Entity</text><line style="stroke:#181818;stroke-width:0.5;" x1="249.39" x2="458.6078" y1="354.2175" y2="354.2175"/></g><!--class ControlStructure--><g id="elem_ControlStructure"><rect codeLine="9" fill="#F1F1F1" height="80.5938" id="ControlStructure" rx="2.5" ry="2.5" style="stroke:#181818;stroke-width:0.5;" width="482.9414" x="45.53" y="92.14"/><ellipse cx="224.5769" cy="108.14" fill="#ADD1B2" rx="11" ry="11" style="stroke:#181818;stroke-width:1;"/><path d="M227.5456,113.7806 Q226.9675,114.0775 226.3269,114.2181 Q225.6863,114.3744 224.9831,114.3744 Q222.4831,114.3744 221.155,112.7337 Q219.8425,111.0775 219.8425,107.9525 Q219.8425,104.8275 221.155,103.1712 Q222.4831,101.515 224.9831,101.515 Q225.6863,101.515 226.3269,101.6712 Q226.9831,101.8275 227.5456,102.1244 L227.5456,104.8431 Q226.9206,104.265 226.3269,103.9994 Q225.7331,103.7181 225.1081,103.7181 Q223.7644,103.7181 223.0769,104.7962 Q222.3894,105.8587 222.3894,107.9525 Q222.3894,110.0462 223.0769,111.1244 Q223.7644,112.1869 225.1081,112.1869 Q225.7331,112.1869 226.3269,111.9212 Q226.9206,111.64 227.5456,111.0619 L227.5456,113.7806 Z " fill="#000000"/><text fill="#000000" font-family="sans-serif" font-size="14" lengthAdjust="spacing" textLength="116.3477" x="245.0769" y="112.9867">ControlStructure</text><line style="stroke:#181818;stroke-width:0.5;" x1="46.53" x2="527.4714" y1="124.14" y2="124.14"/><text fill="#000000" font-family="sans-serif" font-size="14" lengthAdjust="spacing" textLength="178.5957" x="51.53" y="141.1351">entities: frozenset[Entity]</text><text fill="#000000" font-family="sans-serif" font-size="14" lengthAdjust="spacing" textLength="470.9414" x="51.53" y="157.432">control_actions_or_feedbacks: frozenset[ControlActionOrFeedback]</text><line style="stroke:#181818;stroke-width:0.5;" x1="46.53" x2="527.4714" y1="164.7337" y2="164.7337"/></g><!--class ControlType--><g id="elem_ControlType"><rect codeLine="13" fill="#F1F1F1" height="80.5938" id="ControlType" rx="2.5" ry="2.5" style="stroke:#181818;stroke-width:0.5;" width="117.251" x="295.37" y="446.67"/><ellipse cx="310.37" cy="462.67" fill="#EB937F" rx="11" ry="11" style="stroke:#181818;stroke-width:1;"/><path d="M314.4794,468.67 L306.7606,468.67 L306.7606,456.2794 L314.4794,456.2794 L314.4794,458.4356 L309.2138,458.4356 L309.2138,461.1075 L313.9794,461.1075 L313.9794,463.2637 L309.2138,463.2637 L309.2138,466.5137 L314.4794,466.5137 L314.4794,468.67 Z " fill="#000000"/><text fill="#000000" font-family="sans-serif" font-size="14" lengthAdjust="spacing" textLength="85.251" x="324.37" y="467.5167">ControlType</text><line style="stroke:#181818;stroke-width:0.5;" x1="296.37" x2="411.621" y1="478.67" y2="478.67"/><text fill="#000000" font-family="sans-serif" font-size="14" lengthAdjust="spacing" text-decoration="underline" textLength="71.5996" x="301.37" y="495.6651">ACTION: 1</text><text fill="#000000" font-family="sans-serif" font-size="14" lengthAdjust="spacing" text-decoration="underline" textLength="92.7363" x="301.37" y="511.962">FEEDBACK: 2</text><line style="stroke:#181818;stroke-width:0.5;" x1="296.37" x2="411.621" y1="519.2637" y2="519.2637"/></g><!--class Entity--><g id="elem_Entity"><rect codeLine="29" fill="#F1F1F1" height="64.2969" id="Entity" rx="2.5" ry="2.5" style="stroke:#181818;stroke-width:0.5;" width="79.4092" x="177.3" y="454.82"/><ellipse cx="195.2417" cy="470.82" fill="#ADD1B2" rx="11" ry="11" style="stroke:#181818;stroke-width:1;"/><path d="M198.2104,476.4606 Q197.6323,476.7575 196.9917,476.8981 Q196.3511,477.0544 195.6479,477.0544 Q193.1479,477.0544 191.8198,475.4137 Q190.5073,473.7575 190.5073,470.6325 Q190.5073,467.5075 191.8198,465.8512 Q193.1479,464.195 195.6479,464.195 Q196.3511,464.195 196.9917,464.3512 Q197.6479,464.5075 198.2104,464.8044 L198.2104,467.5231 Q197.5854,466.945 196.9917,466.6794 Q196.3979,466.3981 195.7729,466.3981 Q194.4292,466.3981 193.7417,467.4762 Q193.0542,468.5387 193.0542,470.6325 Q193.0542,472.7262 193.7417,473.8044 Q194.4292,474.8669 195.7729,474.8669 Q196.3979,474.8669 196.9917,474.6012 Q197.5854,474.32 198.2104,473.7419 L198.2104,476.4606 Z " fill="#000000"/><text fill="#000000" font-family="sans-serif" font-size="14" lengthAdjust="spacing" textLength="40.8721" x="209.8954" y="475.6667">Entity</text><line style="stroke:#181818;stroke-width:0.5;" x1="178.3" x2="255.7092" y1="486.82" y2="486.82"/><text fill="#000000" font-family="sans-serif" font-size="14" lengthAdjust="spacing" textLength="67.4092" x="183.3" y="503.8151">name: str</text><line style="stroke:#181818;stroke-width:0.5;" x1="178.3" x2="255.7092" y1="511.1169" y2="511.1169"/></g><!--class ControllerConstraint--><g id="elem_ControllerConstraint"><rect codeLine="17" fill="#F1F1F1" height="129.4844" id="ControllerConstraint" rx="2.5" ry="2.5" style="stroke:#181818;stroke-width:0.5;" width="356.5791" x="1082.71" y="240.89"/><ellipse cx="1185.8711" cy="256.89" fill="#ADD1B2" rx="11" ry="11" style="stroke:#181818;stroke-width:1;"/><path d="M1188.8399,262.5306 Q1188.2618,262.8275 1187.6211,262.9681 Q1186.9805,263.1244 1186.2774,263.1244 Q1183.7774,263.1244 1182.4493,261.4837 Q1181.1368,259.8275 1181.1368,256.7025 Q1181.1368,253.5775 1182.4493,251.9212 Q1183.7774,250.265 1186.2774,250.265 Q1186.9805,250.265 1187.6211,250.4212 Q1188.2774,250.5775 1188.8399,250.8744 L1188.8399,253.5931 Q1188.2149,253.015 1187.6211,252.7494 Q1187.0274,252.4681 1186.4024,252.4681 Q1185.0586,252.4681 1184.3711,253.5462 Q1183.6836,254.6087 1183.6836,256.7025 Q1183.6836,258.7962 1184.3711,259.8744 Q1185.0586,260.9369 1186.4024,260.9369 Q1187.0274,260.9369 1187.6211,260.6712 Q1188.2149,260.39 1188.8399,259.8119 L1188.8399,262.5306 Z " fill="#000000"/><text fill="#000000" font-family="sans-serif" font-size="14" lengthAdjust="spacing" textLength="141.7568" x="1206.3711" y="261.7367">ControllerConstraint</text><line style="stroke:#181818;stroke-width:0.5;" x1="1083.71" x2="1438.2891" y1="272.89" y2="272.89"/><text fill="#000000" font-family="sans-serif" font-size="14" lengthAdjust="spacing" textLength="74.5049" x="1088.71" y="289.8851">source: str</text><text fill="#000000" font-family="sans-serif" font-size="14" lengthAdjust="spacing" textLength="65.9805" x="1088.71" y="306.182">type_: str</text><text fill="#000000" font-family="sans-serif" font-size="14" lengthAdjust="spacing" textLength="126.6357" x="1088.71" y="322.4789">control_action: str</text><text fill="#000000" font-family="sans-serif" font-size="14" lengthAdjust="spacing" textLength="80.7188" x="1088.71" y="338.7757">context: str</text><text fill="#000000" font-family="sans-serif" font-size="14" lengthAdjust="spacing" textLength="344.5791" x="1088.71" y="355.0726">unsafe_control_actions: list[UnsafeControlAction]</text><line style="stroke:#181818;stroke-width:0.5;" x1="1083.71" x2="1438.2891" y1="362.3744" y2="362.3744"/></g><!--class Definition--><g id="elem_Definition"><rect codeLine="24" fill="#F1F1F1" height="96.8906" id="Definition" rx="2.5" ry="2.5" style="stroke:#181818;stroke-width:0.5;" width="360.6328" x="1080.68" y="84"/><ellipse cx="1222.8504" cy="100" fill="#A9DCDF" rx="11" ry="11" style="stroke:#181818;stroke-width:1;"/><path d="M1222.9598,95.3438 L1221.8035,100.4219 L1224.1317,100.4219 L1222.9598,95.3438 Z M1221.4754,93.1094 L1224.4598,93.1094 L1227.8192,105.5 L1225.366,105.5 L1224.6004,102.4375 L1221.3192,102.4375 L1220.5692,105.5 L1218.1317,105.5 L1221.4754,93.1094 Z " fill="#000000"/><text fill="#000000" font-family="sans-serif" font-size="14" font-style="italic" lengthAdjust="spacing" textLength="67.792" x="1243.3504" y="104.8467">Definition</text><line style="stroke:#181818;stroke-width:0.5;" x1="1081.68" x2="1440.3128" y1="116" y2="116"/><text fill="#000000" font-family="sans-serif" font-size="14" lengthAdjust="spacing" textLength="280.6836" x="1086.68" y="132.9951">_NAME_PATTERN: ClassVar[Pattern[str]]</text><text fill="#000000" font-family="sans-serif" font-size="14" lengthAdjust="spacing" textLength="348.6328" x="1086.68" y="149.292">_Definition__lookup: ClassVar[dict[str, Definition]]</text><text fill="#000000" font-family="sans-serif" font-size="14" lengthAdjust="spacing" textLength="67.4092" x="1086.68" y="165.5889">name: str</text><line style="stroke:#181818;stroke-width:0.5;" x1="1081.68" x2="1440.3128" y1="172.8906" y2="172.8906"/></g><!--class Hazard--><g id="elem_Hazard"><rect codeLine="32" fill="#F1F1F1" height="96.8906" id="Hazard" rx="2.5" ry="2.5" style="stroke:#181818;stroke-width:0.5;" width="158.5967" x="1288.7" y="949.93"/><ellipse cx="1338.91" cy="965.93" fill="#ADD1B2" rx="11" ry="11" style="stroke:#181818;stroke-width:1;"/><path d="M1341.8787,971.5706 Q1341.3006,971.8675 1340.66,972.0081 Q1340.0193,972.1644 1339.3162,972.1644 Q1336.8162,972.1644 1335.4881,970.5237 Q1334.1756,968.8675 1334.1756,965.7425 Q1334.1756,962.6175 1335.4881,960.9612 Q1336.8162,959.305 1339.3162,959.305 Q1340.0193,959.305 1340.66,959.4612 Q1341.3162,959.6175 1341.8787,959.9144 L1341.8787,962.6331 Q1341.2537,962.055 1340.66,961.7894 Q1340.0662,961.5081 1339.4412,961.5081 Q1338.0975,961.5081 1337.41,962.5862 Q1336.7225,963.6487 1336.7225,965.7425 Q1336.7225,967.8362 1337.41,968.9144 Q1338.0975,969.9769 1339.4412,969.9769 Q1340.0662,969.9769 1340.66,969.7112 Q1341.2537,969.43 1341.8787,968.8519 L1341.8787,971.5706 Z " fill="#000000"/><text fill="#000000" font-family="sans-serif" font-size="14" lengthAdjust="spacing" textLength="49.6768" x="1359.41" y="970.7767">Hazard</text><line style="stroke:#181818;stroke-width:0.5;" x1="1289.7" x2="1446.2967" y1="981.93" y2="981.93"/><text fill="#000000" font-family="sans-serif" font-size="14" lengthAdjust="spacing" textLength="78.3193" x="1294.7" y="998.9251">system: str</text><text fill="#000000" font-family="sans-serif" font-size="14" lengthAdjust="spacing" textLength="146.5967" x="1294.7" y="1015.222">unsafe_condition: str</text><text fill="#000000" font-family="sans-serif" font-size="14" lengthAdjust="spacing" textLength="114.5566" x="1294.7" y="1031.5189">losses: list[Loss]</text><line style="stroke:#181818;stroke-width:0.5;" x1="1289.7" x2="1446.2967" y1="1038.8206" y2="1038.8206"/></g><!--class Loss--><g id="elem_Loss"><rect codeLine="37" fill="#F1F1F1" height="64.2969" id="Loss" rx="2.5" ry="2.5" style="stroke:#181818;stroke-width:0.5;" width="117.5469" x="1429.23" y="1106.82"/><ellipse cx="1468.7972" cy="1122.82" fill="#ADD1B2" rx="11" ry="11" style="stroke:#181818;stroke-width:1;"/><path d="M1471.7659,1128.4606 Q1471.1878,1128.7575 1470.5472,1128.8981 Q1469.9066,1129.0544 1469.2034,1129.0544 Q1466.7034,1129.0544 1465.3753,1127.4138 Q1464.0628,1125.7575 1464.0628,1122.6325 Q1464.0628,1119.5075 1465.3753,1117.8513 Q1466.7034,1116.195 1469.2034,1116.195 Q1469.9066,1116.195 1470.5472,1116.3513 Q1471.2034,1116.5075 1471.7659,1116.8044 L1471.7659,1119.5231 Q1471.1409,1118.945 1470.5472,1118.6794 Q1469.9534,1118.3981 1469.3284,1118.3981 Q1467.9847,1118.3981 1467.2972,1119.4763 Q1466.6097,1120.5388 1466.6097,1122.6325 Q1466.6097,1124.7263 1467.2972,1125.8044 Q1467.9847,1126.8669 1469.3284,1126.8669 Q1469.9534,1126.8669 1470.5472,1126.6013 Q1471.1409,1126.32 1471.7659,1125.7419 L1471.7659,1128.4606 Z " fill="#000000"/><text fill="#000000" font-family="sans-serif" font-size="14" lengthAdjust="spacing" textLength="30.9531" x="1488.2566" y="1127.6667">Loss</text><line style="stroke:#181818;stroke-width:0.5;" x1="1430.23" x2="1545.7769" y1="1138.82" y2="1138.82"/><text fill="#000000" font-family="sans-serif" font-size="14" lengthAdjust="spacing" textLength="105.5469" x="1435.23" y="1155.8151">description: str</text><line style="stroke:#181818;stroke-width:0.5;" x1="1430.23" x2="1545.7769" y1="1163.1169" y2="1163.1169"/></g><!--class Responsibility--><g id="elem_Responsibility"><rect codeLine="40" fill="#F1F1F1" height="80.5938" id="Responsibility" rx="2.5" ry="2.5" style="stroke:#181818;stroke-width:0.5;" width="390.3486" x="583.83" y="265.33"/><ellipse cx="726.0175" cy="281.33" fill="#ADD1B2" rx="11" ry="11" style="stroke:#181818;stroke-width:1;"/><path d="M728.9863,286.9706 Q728.4081,287.2675 727.7675,287.4081 Q727.1269,287.5644 726.4238,287.5644 Q723.9238,287.5644 722.5956,285.9237 Q721.2831,284.2675 721.2831,281.1425 Q721.2831,278.0175 722.5956,276.3612 Q723.9238,274.705 726.4238,274.705 Q727.1269,274.705 727.7675,274.8612 Q728.4238,275.0175 728.9863,275.3144 L728.9863,278.0331 Q728.3613,277.455 727.7675,277.1894 Q727.1738,276.9081 726.5488,276.9081 Q725.205,276.9081 724.5175,277.9862 Q723.83,279.0487 723.83,281.1425 Q723.83,283.2362 724.5175,284.3144 Q725.205,285.3769 726.5488,285.3769 Q727.1738,285.3769 727.7675,285.1112 Q728.3613,284.83 728.9863,284.2519 L728.9863,286.9706 Z " fill="#000000"/><text fill="#000000" font-family="sans-serif" font-size="14" lengthAdjust="spacing" textLength="97.4736" x="746.5175" y="286.1767">Responsibility</text><line style="stroke:#181818;stroke-width:0.5;" x1="584.83" x2="973.1786" y1="297.33" y2="297.33"/><text fill="#000000" font-family="sans-serif" font-size="14" lengthAdjust="spacing" textLength="105.5469" x="589.83" y="314.3251">description: str</text><text fill="#000000" font-family="sans-serif" font-size="14" lengthAdjust="spacing" textLength="378.3486" x="589.83" y="330.622">system_level_constraints: list[SystemLevelConstraint]</text><line style="stroke:#181818;stroke-width:0.5;" x1="584.83" x2="973.1786" y1="337.9237" y2="337.9237"/></g><!--class Scenario--><g id="elem_Scenario"><rect codeLine="44" fill="#F1F1F1" height="48" id="Scenario" rx="2.5" ry="2.5" style="stroke:#181818;stroke-width:0.5;" width="92.8604" x="1474.57" y="281.63"/><ellipse cx="1489.57" cy="297.63" fill="#A9DCDF" rx="11" ry="11" style="stroke:#181818;stroke-width:1;"/><path d="M1489.6794,292.9737 L1488.5231,298.0519 L1490.8513,298.0519 L1489.6794,292.9737 Z M1488.195,290.7394 L1491.1794,290.7394 L1494.5388,303.13 L1492.0856,303.13 L1491.32,300.0675 L1488.0388,300.0675 L1487.2888,303.13 L1484.8513,303.13 L1488.195,290.7394 Z " fill="#000000"/><text fill="#000000" font-family="sans-serif" font-size="14" font-style="italic" lengthAdjust="spacing" textLength="60.8604" x="1503.57" y="302.4767">Scenario</text><line style="stroke:#181818;stroke-width:0.5;" x1="1475.57" x2="1566.4304" y1="313.63" y2="313.63"/><line style="stroke:#181818;stroke-width:0.5;" x1="1475.57" x2="1566.4304" y1="321.63" y2="321.63"/></g><!--class ScenarioType1--><g id="elem_ScenarioType1"><rect codeLine="46" fill="#F1F1F1" height="113.1875" id="ScenarioType1" rx="2.5" ry="2.5" style="stroke:#181818;stroke-width:0.5;" width="367.9404" x="1162.03" y="430.37"/><ellipse cx="1289.698" cy="446.37" fill="#ADD1B2" rx="11" ry="11" style="stroke:#181818;stroke-width:1;"/><path d="M1292.6667,452.0106 Q1292.0886,452.3075 1291.448,452.4481 Q1290.8073,452.6044 1290.1042,452.6044 Q1287.6042,452.6044 1286.2761,450.9637 Q1284.9636,449.3075 1284.9636,446.1825 Q1284.9636,443.0575 1286.2761,441.4012 Q1287.6042,439.745 1290.1042,439.745 Q1290.8073,439.745 1291.448,439.9012 Q1292.1042,440.0575 1292.6667,440.3544 L1292.6667,443.0731 Q1292.0417,442.495 1291.448,442.2294 Q1290.8542,441.9481 1290.2292,441.9481 Q1288.8855,441.9481 1288.198,443.0262 Q1287.5105,444.0887 1287.5105,446.1825 Q1287.5105,448.2762 1288.198,449.3544 Q1288.8855,450.4169 1290.2292,450.4169 Q1290.8542,450.4169 1291.448,450.1512 Q1292.0417,449.87 1292.6667,449.2919 L1292.6667,452.0106 Z " fill="#000000"/><text fill="#000000" font-family="sans-serif" font-size="14" lengthAdjust="spacing" textLength="104.1045" x="1310.198" y="451.2167">ScenarioType1</text><line style="stroke:#181818;stroke-width:0.5;" x1="1163.03" x2="1528.9704" y1="462.37" y2="462.37"/><text fill="#000000" font-family="sans-serif" font-size="14" lengthAdjust="spacing" textLength="105.5469" x="1168.03" y="479.3651">description: str</text><text fill="#000000" font-family="sans-serif" font-size="14" lengthAdjust="spacing" textLength="355.9404" x="1168.03" y="495.662">unsafe_control_action: UnsafeControlAction | None</text><text fill="#000000" font-family="sans-serif" font-size="14" lengthAdjust="spacing" textLength="117.7627" x="1168.03" y="511.9589">result: str | None</text><text fill="#000000" font-family="sans-serif" font-size="14" lengthAdjust="spacing" textLength="157.0078" x="1168.03" y="528.2557">hazard: Hazard | None</text><line style="stroke:#181818;stroke-width:0.5;" x1="1163.03" x2="1528.9704" y1="535.5575" y2="535.5575"/></g><!--class ScenarioType2--><g id="elem_ScenarioType2"><rect codeLine="52" fill="#F1F1F1" height="96.8906" id="ScenarioType2" rx="2.5" ry="2.5" style="stroke:#181818;stroke-width:0.5;" width="136.1045" x="1430.95" y="793.04"/><ellipse cx="1445.95" cy="809.04" fill="#ADD1B2" rx="11" ry="11" style="stroke:#181818;stroke-width:1;"/><path d="M1448.9188,814.6806 Q1448.3406,814.9775 1447.7,815.1181 Q1447.0594,815.2744 1446.3563,815.2744 Q1443.8563,815.2744 1442.5281,813.6338 Q1441.2156,811.9775 1441.2156,808.8525 Q1441.2156,805.7275 1442.5281,804.0713 Q1443.8563,802.415 1446.3563,802.415 Q1447.0594,802.415 1447.7,802.5713 Q1448.3563,802.7275 1448.9188,803.0244 L1448.9188,805.7431 Q1448.2938,805.165 1447.7,804.8994 Q1447.1063,804.6181 1446.4813,804.6181 Q1445.1375,804.6181 1444.45,805.6963 Q1443.7625,806.7588 1443.7625,808.8525 Q1443.7625,810.9463 1444.45,812.0244 Q1445.1375,813.0869 1446.4813,813.0869 Q1447.1063,813.0869 1447.7,812.8213 Q1448.2938,812.54 1448.9188,811.9619 L1448.9188,814.6806 Z " fill="#000000"/><text fill="#000000" font-family="sans-serif" font-size="14" lengthAdjust="spacing" textLength="104.1045" x="1459.95" y="813.8867">ScenarioType2</text><line style="stroke:#181818;stroke-width:0.5;" x1="1431.95" x2="1566.0545" y1="825.04" y2="825.04"/><text fill="#000000" font-family="sans-serif" font-size="14" lengthAdjust="spacing" textLength="105.5469" x="1436.95" y="842.0351">description: str</text><text fill="#000000" font-family="sans-serif" font-size="14" lengthAdjust="spacing" textLength="67.6211" x="1436.95" y="858.332">result: str</text><text fill="#000000" font-family="sans-serif" font-size="14" lengthAdjust="spacing" textLength="106.8662" x="1436.95" y="874.6289">hazard: Hazard</text><line style="stroke:#181818;stroke-width:0.5;" x1="1431.95" x2="1566.0545" y1="881.9306" y2="881.9306"/></g><!--class SubHazard--><g id="elem_SubHazard"><rect codeLine="57" fill="#F1F1F1" height="80.5938" id="SubHazard" rx="2.5" ry="2.5" style="stroke:#181818;stroke-width:0.5;" width="118.8662" x="1155.57" y="801.19"/><ellipse cx="1175.3143" cy="817.19" fill="#ADD1B2" rx="11" ry="11" style="stroke:#181818;stroke-width:1;"/><path d="M1178.2831,822.8306 Q1177.705,823.1275 1177.0643,823.2681 Q1176.4237,823.4244 1175.7206,823.4244 Q1173.2206,823.4244 1171.8925,821.7837 Q1170.58,820.1275 1170.58,817.0025 Q1170.58,813.8775 1171.8925,812.2212 Q1173.2206,810.565 1175.7206,810.565 Q1176.4237,810.565 1177.0643,810.7212 Q1177.7206,810.8775 1178.2831,811.1744 L1178.2831,813.8931 Q1177.6581,813.315 1177.0643,813.0494 Q1176.4706,812.7681 1175.8456,812.7681 Q1174.5018,812.7681 1173.8143,813.8462 Q1173.1268,814.9087 1173.1268,817.0025 Q1173.1268,819.0962 1173.8143,820.1744 Q1174.5018,821.2369 1175.8456,821.2369 Q1176.4706,821.2369 1177.0643,820.9712 Q1177.6581,820.69 1178.2831,820.1119 L1178.2831,822.8306 Z " fill="#000000"/><text fill="#000000" font-family="sans-serif" font-size="14" lengthAdjust="spacing" textLength="76.3232" x="1190.3686" y="822.0367">SubHazard</text><line style="stroke:#181818;stroke-width:0.5;" x1="1156.57" x2="1273.4362" y1="833.19" y2="833.19"/><text fill="#000000" font-family="sans-serif" font-size="14" lengthAdjust="spacing" textLength="106.8662" x="1161.57" y="850.1851">hazard: Hazard</text><text fill="#000000" font-family="sans-serif" font-size="14" lengthAdjust="spacing" textLength="105.5469" x="1161.57" y="866.482">description: str</text><line style="stroke:#181818;stroke-width:0.5;" x1="1156.57" x2="1273.4362" y1="873.7837" y2="873.7837"/></g><!--class SystemLevelConstraint--><g id="elem_SystemLevelConstraint"><rect codeLine="61" fill="#F1F1F1" height="48" id="SystemLevelConstraint" rx="2.5" ry="2.5" style="stroke:#181818;stroke-width:0.5;" width="193.9912" x="749" y="462.96"/><ellipse cx="764" cy="478.96" fill="#A9DCDF" rx="11" ry="11" style="stroke:#181818;stroke-width:1;"/><path d="M764.1094,474.3037 L762.9531,479.3819 L765.2813,479.3819 L764.1094,474.3037 Z M762.625,472.0694 L765.6094,472.0694 L768.9688,484.46 L766.5156,484.46 L765.75,481.3975 L762.4688,481.3975 L761.7188,484.46 L759.2813,484.46 L762.625,472.0694 Z " fill="#000000"/><text fill="#000000" font-family="sans-serif" font-size="14" font-style="italic" lengthAdjust="spacing" textLength="161.9912" x="778" y="483.8067">SystemLevelConstraint</text><line style="stroke:#181818;stroke-width:0.5;" x1="750" x2="941.9912" y1="494.96" y2="494.96"/><line style="stroke:#181818;stroke-width:0.5;" x1="750" x2="941.9912" y1="502.96" y2="502.96"/></g><!--class SystemLevelConstraintType1--><g id="elem_SystemLevelConstraintType1"><rect codeLine="63" fill="#F1F1F1" height="96.8906" id="SystemLevelConstraintType1" rx="2.5" ry="2.5" style="stroke:#181818;stroke-width:0.5;" width="237.2354" x="637.38" y="793.04"/><ellipse cx="652.38" cy="809.04" fill="#ADD1B2" rx="11" ry="11" style="stroke:#181818;stroke-width:1;"/><path d="M655.3488,814.6806 Q654.7706,814.9775 654.13,815.1181 Q653.4894,815.2744 652.7863,815.2744 Q650.2863,815.2744 648.9581,813.6338 Q647.6456,811.9775 647.6456,808.8525 Q647.6456,805.7275 648.9581,804.0713 Q650.2863,802.415 652.7863,802.415 Q653.4894,802.415 654.13,802.5713 Q654.7863,802.7275 655.3488,803.0244 L655.3488,805.7431 Q654.7238,805.165 654.13,804.8994 Q653.5363,804.6181 652.9113,804.6181 Q651.5675,804.6181 650.88,805.6963 Q650.1925,806.7588 650.1925,808.8525 Q650.1925,810.9463 650.88,812.0244 Q651.5675,813.0869 652.9113,813.0869 Q653.5363,813.0869 654.13,812.8213 Q654.7238,812.54 655.3488,811.9619 L655.3488,814.6806 Z " fill="#000000"/><text fill="#000000" font-family="sans-serif" font-size="14" lengthAdjust="spacing" textLength="205.2354" x="666.38" y="813.8867">SystemLevelConstraintType1</text><line style="stroke:#181818;stroke-width:0.5;" x1="638.38" x2="873.6154" y1="825.04" y2="825.04"/><text fill="#000000" font-family="sans-serif" font-size="14" lengthAdjust="spacing" textLength="78.3193" x="643.38" y="842.0351">system: str</text><text fill="#000000" font-family="sans-serif" font-size="14" lengthAdjust="spacing" textLength="189.0957" x="643.38" y="858.332">enforcement_condition: str</text><text fill="#000000" font-family="sans-serif" font-size="14" lengthAdjust="spacing" textLength="145.6465" x="643.38" y="874.6289">hazards: list[Hazard]</text><line style="stroke:#181818;stroke-width:0.5;" x1="638.38" x2="873.6154" y1="881.9306" y2="881.9306"/></g><!--class SystemLevelConstraintType2--><g id="elem_SystemLevelConstraintType2"><rect codeLine="68" fill="#F1F1F1" height="96.8906" id="SystemLevelConstraintType2" rx="2.5" ry="2.5" style="stroke:#181818;stroke-width:0.5;" width="237.2354" x="621.38" y="619.85"/><ellipse cx="636.38" cy="635.85" fill="#ADD1B2" rx="11" ry="11" style="stroke:#181818;stroke-width:1;"/><path d="M639.3488,641.4906 Q638.7706,641.7875 638.13,641.9281 Q637.4894,642.0844 636.7863,642.0844 Q634.2863,642.0844 632.9581,640.4437 Q631.6456,638.7875 631.6456,635.6625 Q631.6456,632.5375 632.9581,630.8812 Q634.2863,629.225 636.7863,629.225 Q637.4894,629.225 638.13,629.3812 Q638.7863,629.5375 639.3488,629.8344 L639.3488,632.5531 Q638.7238,631.975 638.13,631.7094 Q637.5363,631.4281 636.9113,631.4281 Q635.5675,631.4281 634.88,632.5062 Q634.1925,633.5687 634.1925,635.6625 Q634.1925,637.7562 634.88,638.8344 Q635.5675,639.8969 636.9113,639.8969 Q637.5363,639.8969 638.13,639.6312 Q638.7238,639.35 639.3488,638.7719 L639.3488,641.4906 Z " fill="#000000"/><text fill="#000000" font-family="sans-serif" font-size="14" lengthAdjust="spacing" textLength="205.2354" x="650.38" y="640.6967">SystemLevelConstraintType2</text><line style="stroke:#181818;stroke-width:0.5;" x1="622.38" x2="857.6154" y1="651.85" y2="651.85"/><text fill="#000000" font-family="sans-serif" font-size="14" lengthAdjust="spacing" textLength="106.8662" x="627.38" y="668.8451">hazard: Hazard</text><text fill="#000000" font-family="sans-serif" font-size="14" lengthAdjust="spacing" textLength="132.9385" x="627.38" y="685.142">loss_mitigation: str</text><text fill="#000000" font-family="sans-serif" font-size="14" lengthAdjust="spacing" textLength="145.6465" x="627.38" y="701.4389">hazards: list[Hazard]</text><line style="stroke:#181818;stroke-width:0.5;" x1="622.38" x2="857.6154" y1="708.7406" y2="708.7406"/></g><!--class SystemLevelConstraintType3--><g id="elem_SystemLevelConstraintType3"><rect codeLine="73" fill="#F1F1F1" height="80.5938" id="SystemLevelConstraintType3" rx="2.5" ry="2.5" style="stroke:#181818;stroke-width:0.5;" width="237.2354" x="893.38" y="628"/><ellipse cx="908.38" cy="644" fill="#ADD1B2" rx="11" ry="11" style="stroke:#181818;stroke-width:1;"/><path d="M911.3488,649.6406 Q910.7706,649.9375 910.13,650.0781 Q909.4894,650.2344 908.7863,650.2344 Q906.2863,650.2344 904.9581,648.5937 Q903.6456,646.9375 903.6456,643.8125 Q903.6456,640.6875 904.9581,639.0312 Q906.2863,637.375 908.7863,637.375 Q909.4894,637.375 910.13,637.5312 Q910.7863,637.6875 911.3488,637.9844 L911.3488,640.7031 Q910.7238,640.125 910.13,639.8594 Q909.5363,639.5781 908.9113,639.5781 Q907.5675,639.5781 906.88,640.6562 Q906.1925,641.7187 906.1925,643.8125 Q906.1925,645.9062 906.88,646.9844 Q907.5675,648.0469 908.9113,648.0469 Q909.5363,648.0469 910.13,647.7812 Q910.7238,647.5 911.3488,646.9219 L911.3488,649.6406 Z " fill="#000000"/><text fill="#000000" font-family="sans-serif" font-size="14" lengthAdjust="spacing" textLength="205.2354" x="922.38" y="648.8467">SystemLevelConstraintType3</text><line style="stroke:#181818;stroke-width:0.5;" x1="894.38" x2="1129.6154" y1="660" y2="660"/><text fill="#000000" font-family="sans-serif" font-size="14" lengthAdjust="spacing" textLength="165.5664" x="899.38" y="676.9951">sub_hazard: SubHazard</text><text fill="#000000" font-family="sans-serif" font-size="14" lengthAdjust="spacing" textLength="189.0957" x="899.38" y="693.292">enforcement_condition: str</text><line style="stroke:#181818;stroke-width:0.5;" x1="894.38" x2="1129.6154" y1="700.5937" y2="700.5937"/></g><!--class UnsafeControlAction--><g id="elem_UnsafeControlAction"><rect codeLine="77" fill="#F1F1F1" height="129.4844" id="UnsafeControlAction" rx="2.5" ry="2.5" style="stroke:#181818;stroke-width:0.5;" width="247.5869" x="1203.21" y="603.56"/><ellipse cx="1250.9829" cy="619.56" fill="#ADD1B2" rx="11" ry="11" style="stroke:#181818;stroke-width:1;"/><path d="M1253.9517,625.2006 Q1253.3736,625.4975 1252.7329,625.6381 Q1252.0923,625.7944 1251.3892,625.7944 Q1248.8892,625.7944 1247.5611,624.1538 Q1246.2486,622.4975 1246.2486,619.3725 Q1246.2486,616.2475 1247.5611,614.5913 Q1248.8892,612.935 1251.3892,612.935 Q1252.0923,612.935 1252.7329,613.0913 Q1253.3892,613.2475 1253.9517,613.5444 L1253.9517,616.2631 Q1253.3267,615.685 1252.7329,615.4194 Q1252.1392,615.1381 1251.5142,615.1381 Q1250.1704,615.1381 1249.4829,616.2163 Q1248.7954,617.2788 1248.7954,619.3725 Q1248.7954,621.4663 1249.4829,622.5444 Q1250.1704,623.6069 1251.5142,623.6069 Q1252.1392,623.6069 1252.7329,623.3413 Q1253.3267,623.06 1253.9517,622.4819 L1253.9517,625.2006 Z " fill="#000000"/><text fill="#000000" font-family="sans-serif" font-size="14" lengthAdjust="spacing" textLength="143.541" x="1271.4829" y="624.4067">UnsafeControlAction</text><line style="stroke:#181818;stroke-width:0.5;" x1="1204.21" x2="1449.7969" y1="635.56" y2="635.56"/><text fill="#000000" font-family="sans-serif" font-size="14" lengthAdjust="spacing" textLength="74.5049" x="1209.21" y="652.5551">source: str</text><text fill="#000000" font-family="sans-serif" font-size="14" lengthAdjust="spacing" textLength="65.9805" x="1209.21" y="668.852">type_: str</text><text fill="#000000" font-family="sans-serif" font-size="14" lengthAdjust="spacing" textLength="126.6357" x="1209.21" y="685.1489">control_action: str</text><text fill="#000000" font-family="sans-serif" font-size="14" lengthAdjust="spacing" textLength="80.7188" x="1209.21" y="701.4457">context: str</text><text fill="#000000" font-family="sans-serif" font-size="14" lengthAdjust="spacing" textLength="235.5869" x="1209.21" y="717.7426">hazards: list[Hazard | SubHazard]</text><line style="stroke:#181818;stroke-width:0.5;" x1="1204.21" x2="1449.7969" y1="725.0444" y2="725.0444"/></g><!--reverse link ControlActionOrFeedback to ControlType--><g id="link_ControlActionOrFeedback_ControlType"><path codeLine="84" d="M354,374.39 C354,401.53 354,421.54 354,446.18 " fill="#FFFFFF" fill-opacity="0.00000" id="ControlActionOrFeedback-backto-ControlType" style="stroke:#181818;stroke-width:1;"/><polygon fill="#181818" points="354,362.39,350,368.39,354,374.39,358,368.39,354,362.39" style="stroke:#181818;stroke-width:1;"/></g><!--reverse link ControlActionOrFeedback to Entity--><g id="link_ControlActionOrFeedback_Entity"><path codeLine="85" d="M304.1153,371.9259 C280.9453,402.2559 260.42,429.12 241.01,454.53 " fill="#FFFFFF" fill-opacity="0.00000" id="ControlActionOrFeedback-backto-Entity" style="stroke:#181818;stroke-width:1;"/><polygon fill="#181818" points="311.4,362.39,304.579,364.7297,304.1153,371.9259,310.9363,369.5862,311.4,362.39" style="stroke:#181818;stroke-width:1;"/></g><!--reverse link ControlStructure to Entity--><g id="link_ControlStructure_Entity"><path codeLine="86" d="M255.1484,183.464 C243.7584,203.054 237.54,217.16 231,240.89 C210.52,315.25 212,406.97 214.63,454.33 " fill="#FFFFFF" fill-opacity="0.00000" id="ControlStructure-backto-Entity" style="stroke:#181818;stroke-width:1;"/><polygon fill="#181818" points="261.18,173.09,254.7062,176.2664,255.1484,183.464,261.6222,180.2875,261.18,173.09" style="stroke:#181818;stroke-width:1;"/></g><!--reverse link ControlStructure to ControlActionOrFeedback--><g id="link_ControlStructure_ControlActionOrFeedback"><path codeLine="87" d="M306.9098,184.3161 C315.6798,206.7461 322.42,223.95 332.07,248.6 " fill="#FFFFFF" fill-opacity="0.00000" id="ControlStructure-backto-ControlActionOrFeedback" style="stroke:#181818;stroke-width:1;"/><polygon fill="#181818" points="302.54,173.14,300.9995,180.1846,306.9098,184.3161,308.4503,177.2714,302.54,173.14" style="stroke:#181818;stroke-width:1;"/></g><!--reverse link ControllerConstraint to UnsafeControlAction--><g id="link_ControllerConstraint_UnsafeControlAction"><path codeLine="88" d="M1176.1192,379.4904 C1160.1692,397.0404 1153.66,408.46 1145,430.37 C1125.24,480.33 1119.17,504.15 1145,551.26 C1158.51,575.9 1179.73,596.07 1202.98,612.26 " fill="#FFFFFF" fill-opacity="0.00000" id="ControllerConstraint-backto-UnsafeControlAction" style="stroke:#181818;stroke-width:1;"/><polygon fill="#181818" points="1184.19,370.61,1177.1945,372.3599,1176.1192,379.4904,1183.1147,377.7405,1184.19,370.61" style="stroke:#181818;stroke-width:1;"/></g><!--reverse link Definition to ControllerConstraint--><g id="link_Definition_ControllerConstraint"><path codeLine="89" d="M1261,199.13 C1261,217.53 1261,220.86 1261,240.56 " fill="#FFFFFF" fill-opacity="0.00000" id="Definition-backto-ControllerConstraint" style="stroke:#181818;stroke-width:1;"/><polygon fill="#FFFFFF" fill-opacity="0.00000" points="1261,181.13,1255,199.13,1267,199.13,1261,181.13" style="stroke:#181818;stroke-width:1;"/></g><!--reverse link Definition to Definition--><g id="link_Definition_Definition"><path codeLine="90" d="M1453.2904,107.5647 C1474.3104,112.6747 1476.32,119.08 1476.32,132.44 C1476.32,145.8 1462.65,155.04 1441.63,160.15 " fill="#FFFFFF" fill-opacity="0.00000" id="Definition-backto-Definition" style="stroke:#181818;stroke-width:1;"/><polygon fill="#181818" points="1441.63,104.73,1446.5153,110.0341,1453.2904,107.5647,1448.4051,102.2605,1441.63,104.73" style="stroke:#181818;stroke-width:1;"/></g><!--reverse link Hazard to Loss--><g id="link_Hazard_Loss"><path codeLine="91" d="M1417.1518,1056.1446 C1434.2318,1075.8846 1445.71,1089.13 1460.94,1106.72 " fill="#FFFFFF" fill-opacity="0.00000" id="Hazard-backto-Loss" style="stroke:#181818;stroke-width:1;"/><polygon fill="#181818" points="1409.3,1047.07,1410.201,1054.2246,1417.1518,1056.1446,1416.2508,1048.99,1409.3,1047.07" style="stroke:#181818;stroke-width:1;"/></g><!--reverse link Definition to Hazard--><g id="link_Definition_Hazard"><path codeLine="92" d="M1458.8268,159.2121 C1513.0468,174.5921 1550.03,196.01 1585,240.89 C1652.13,327.04 1603,376.75 1603,485.96 C1603,485.96 1603,485.96 1603,669.3 C1603,767.68 1640.25,808.52 1585,889.93 C1553.43,936.46 1495.61,963.7 1447.59,979.1 " fill="#FFFFFF" fill-opacity="0.00000" id="Definition-backto-Hazard" style="stroke:#181818;stroke-width:1;"/><polygon fill="#FFFFFF" fill-opacity="0.00000" points="1441.51,154.3,1457.1894,164.9843,1460.4642,153.4398,1441.51,154.3" style="stroke:#181818;stroke-width:1;"/></g><!--reverse link Definition to Loss--><g id="link_Definition_Loss"><path codeLine="93" d="M1459.1999,152.9168 C1521.7399,167.4968 1569.06,190.62 1611,240.89 C1681.27,325.1 1640,376.28 1640,485.96 C1640,485.96 1640,485.96 1640,842.49 C1640,948.92 1561.05,1055.42 1516.95,1106.61 " fill="#FFFFFF" fill-opacity="0.00000" id="Definition-backto-Loss" style="stroke:#181818;stroke-width:1;"/><polygon fill="#FFFFFF" fill-opacity="0.00000" points="1441.67,148.83,1457.8377,158.7601,1460.5622,147.0735,1441.67,148.83" style="stroke:#181818;stroke-width:1;"/></g><!--reverse link Responsibility to SystemLevelConstraint--><g id="link_Responsibility_SystemLevelConstraint"><path codeLine="94" d="M797.8997,357.2211 C811.2297,392.9011 826.23,433.04 837.28,462.61 " fill="#FFFFFF" fill-opacity="0.00000" id="Responsibility-backto-SystemLevelConstraint" style="stroke:#181818;stroke-width:1;"/><polygon fill="#181818" points="793.7,345.98,792.0528,353.0004,797.8997,357.2211,799.5469,350.2007,793.7,345.98" style="stroke:#181818;stroke-width:1;"/></g><!--reverse link Definition to Responsibility--><g id="link_Definition_Responsibility"><path codeLine="95" d="M1109.1378,187.3735 C1034.9078,213.7335 960.88,240.03 890.68,264.96 " fill="#FFFFFF" fill-opacity="0.00000" id="Definition-backto-Responsibility" style="stroke:#181818;stroke-width:1;"/><polygon fill="#FFFFFF" fill-opacity="0.00000" points="1126.1,181.35,1107.1299,181.7194,1111.1456,193.0276,1126.1,181.35" style="stroke:#181818;stroke-width:1;"/></g><!--reverse link Definition to Scenario--><g id="link_Definition_Scenario"><path codeLine="96" d="M1376.9102,189.7633 C1408.7502,206.8033 1427.48,218.8 1457,240.89 C1472.82,252.72 1488.57,268.35 1500.49,281.17 " fill="#FFFFFF" fill-opacity="0.00000" id="Definition-backto-Scenario" style="stroke:#181818;stroke-width:1;"/><polygon fill="#FFFFFF" fill-opacity="0.00000" points="1361.04,181.27,1374.0791,195.0534,1379.7413,184.4733,1361.04,181.27" style="stroke:#181818;stroke-width:1;"/></g><!--reverse link ScenarioType1 to UnsafeControlAction--><g id="link_ScenarioType1_UnsafeControlAction"><path codeLine="97" d="M1338.8282,555.6535 C1336.8382,574.4735 1335.86,583.69 1333.8,603.11 " fill="#FFFFFF" fill-opacity="0.00000" id="ScenarioType1-backto-UnsafeControlAction" style="stroke:#181818;stroke-width:1;"/><polygon fill="#181818" points="1340.09,543.72,1335.4813,549.2661,1338.8282,555.6535,1343.4369,550.1073,1340.09,543.72" style="stroke:#181818;stroke-width:1;"/></g><!--reverse link ScenarioType1 to Hazard--><g id="link_ScenarioType1_Hazard"><path codeLine="98" d="M1432.7762,552.19 C1450.5262,569.15 1458.32,581.04 1468,603.56 C1490.74,656.42 1488.86,679.41 1468,733.04 C1454.89,766.76 1429.68,760.94 1413,793.04 C1387.2,842.68 1376.16,906.54 1371.45,949.55 " fill="#FFFFFF" fill-opacity="0.00000" id="ScenarioType1-backto-Hazard" style="stroke:#181818;stroke-width:1;"/><polygon fill="#181818" points="1424.1,543.9,1425.6747,550.9371,1432.7762,552.19,1431.2014,545.153,1424.1,543.9" style="stroke:#181818;stroke-width:1;"/></g><!--reverse link Scenario to ScenarioType1--><g id="link_Scenario_ScenarioType1"><path codeLine="99" d="M1485.5512,342.9551 C1460.9112,368.2151 1433.38,396.42 1400.54,430.07 " fill="#FFFFFF" fill-opacity="0.00000" id="Scenario-backto-ScenarioType1" style="stroke:#181818;stroke-width:1;"/><polygon fill="#FFFFFF" fill-opacity="0.00000" points="1498.12,330.07,1481.2562,338.7655,1489.8462,347.1447,1498.12,330.07" style="stroke:#181818;stroke-width:1;"/></g><!--reverse link ScenarioType2 to Hazard--><g id="link_ScenarioType2_Hazard"><path codeLine="100" d="M1450.8815,899.383 C1434.9415,918.233 1424.41,930.68 1408.47,949.53 " fill="#FFFFFF" fill-opacity="0.00000" id="ScenarioType2-backto-Hazard" style="stroke:#181818;stroke-width:1;"/><polygon fill="#181818" points="1458.63,890.22,1451.7014,892.2187,1450.8815,899.383,1457.8101,897.3843,1458.63,890.22" style="stroke:#181818;stroke-width:1;"/></g><!--reverse link Scenario to ScenarioType2--><g id="link_Scenario_ScenarioType2"><path codeLine="101" d="M1531.9913,347.5403 C1538.4213,372.2603 1543.32,395 1547,430.37 C1560.63,561.57 1529.87,716.04 1511.49,792.55 " fill="#FFFFFF" fill-opacity="0.00000" id="Scenario-backto-ScenarioType2" style="stroke:#181818;stroke-width:1;"/><polygon fill="#FFFFFF" fill-opacity="0.00000" points="1527.46,330.12,1526.1845,349.0507,1537.798,346.0299,1527.46,330.12" style="stroke:#181818;stroke-width:1;"/></g><!--reverse link SubHazard to Hazard--><g id="link_SubHazard_Hazard"><path codeLine="102" d="M1262.4334,890.5069 C1282.8034,911.1269 1299.44,927.97 1320.88,949.68 " fill="#FFFFFF" fill-opacity="0.00000" id="SubHazard-backto-Hazard" style="stroke:#181818;stroke-width:1;"/><polygon fill="#181818" points="1254,881.97,1255.3711,889.0496,1262.4334,890.5069,1261.0623,883.4273,1254,881.97" style="stroke:#181818;stroke-width:1;"/></g><!--reverse link SystemLevelConstraint to SubHazard--><g id="link_SystemLevelConstraint_SubHazard"><path codeLine="103" d="M934.0088,517.1244 C1018.0488,545.4244 1131.72,585.74 1148,603.56 C1151.4,607.28 1186.21,734.31 1204.26,800.8 " fill="#FFFFFF" fill-opacity="0.00000" id="SystemLevelConstraint-backto-SubHazard" style="stroke:#181818;stroke-width:1;"/><polygon fill="#FFFFFF" fill-opacity="0.00000" points="916.95,511.38,932.0939,522.8107,935.9236,511.4382,916.95,511.38" style="stroke:#181818;stroke-width:1;"/></g><!--reverse link Definition to SystemLevelConstraint--><g id="link_Definition_SystemLevelConstraint"><path codeLine="104" d="M1103.0828,189.5227 C1073.2628,204.8127 1060.18,216.18 1038,240.89 C997.2,286.33 1027.55,320.71 992,370.37 C964.06,409.41 919.4,442.05 886.83,462.59 " fill="#FFFFFF" fill-opacity="0.00000" id="Definition-backto-SystemLevelConstraint" style="stroke:#181818;stroke-width:1;"/><polygon fill="#FFFFFF" fill-opacity="0.00000" points="1119.1,181.31,1100.3452,184.1836,1105.8204,194.8618,1119.1,181.31" style="stroke:#181818;stroke-width:1;"/></g><!--reverse link SystemLevelConstraintType1 to Hazard--><g id="link_SystemLevelConstraintType1_Hazard"><path codeLine="105" d="M886.7232,875.5743 C1008.7732,906.4643 1183.5,950.68 1288.64,977.29 " fill="#FFFFFF" fill-opacity="0.00000" id="SystemLevelConstraintType1-backto-Hazard" style="stroke:#181818;stroke-width:1;"/><polygon fill="#181818" points="875.09,872.63,879.9252,877.9799,886.7232,875.5743,881.888,870.2244,875.09,872.63" style="stroke:#181818;stroke-width:1;"/></g><!--reverse link SystemLevelConstraint to SystemLevelConstraintType1--><g id="link_SystemLevelConstraint_SystemLevelConstraintType1"><path codeLine="106" d="M731.341,513.3921 C678.861,529.7021 635.73,553.24 604,603.56 C573.3,652.24 577.54,681.94 604,733.04 C616.48,757.15 637.14,777 659.26,792.8 " fill="#FFFFFF" fill-opacity="0.00000" id="SystemLevelConstraint-backto-SystemLevelConstraintType1" style="stroke:#181818;stroke-width:1;"/><polygon fill="#FFFFFF" fill-opacity="0.00000" points="748.53,508.05,729.5603,507.6624,733.1217,519.1218,748.53,508.05" style="stroke:#181818;stroke-width:1;"/></g><!--reverse link SystemLevelConstraintType2 to Hazard--><g id="link_SystemLevelConstraintType2_Hazard"><path codeLine="107" d="M832.5957,723.0268 C912.4557,768.8968 1027.15,833.4 1138,889.93 C1187.37,915.11 1243.74,941.48 1288.31,961.79 " fill="#FFFFFF" fill-opacity="0.00000" id="SystemLevelConstraintType2-backto-Hazard" style="stroke:#181818;stroke-width:1;"/><polygon fill="#181818" points="822.19,717.05,825.4006,723.507,832.5957,723.0268,829.3851,716.5698,822.19,717.05" style="stroke:#181818;stroke-width:1;"/></g><!--reverse link SystemLevelConstraint to SystemLevelConstraintType2--><g id="link_SystemLevelConstraint_SystemLevelConstraintType2"><path codeLine="108" d="M822.981,526.9055 C806.821,554.2455 788.85,584.66 768.2,619.59 " fill="#FFFFFF" fill-opacity="0.00000" id="SystemLevelConstraint-backto-SystemLevelConstraintType2" style="stroke:#181818;stroke-width:1;"/><polygon fill="#FFFFFF" fill-opacity="0.00000" points="832.14,511.41,817.8158,523.8525,828.1461,529.9586,832.14,511.41" style="stroke:#181818;stroke-width:1;"/></g><!--reverse link SystemLevelConstraintType3 to SubHazard--><g id="link_SystemLevelConstraintType3_SubHazard"><path codeLine="109" d="M1068.2534,716.7362 C1100.9334,744.2962 1135.12,773.13 1167.82,800.7 " fill="#FFFFFF" fill-opacity="0.00000" id="SystemLevelConstraintType3-backto-SubHazard" style="stroke:#181818;stroke-width:1;"/><polygon fill="#181818" points="1059.08,709,1061.088,715.9259,1068.2534,716.7362,1066.2454,709.8103,1059.08,709" style="stroke:#181818;stroke-width:1;"/></g><!--reverse link SystemLevelConstraint to SystemLevelConstraintType3--><g id="link_SystemLevelConstraint_SystemLevelConstraintType3"><path codeLine="110" d="M879.9263,524.6205 C907.2563,554.1505 942.4,592.11 975.38,627.74 " fill="#FFFFFF" fill-opacity="0.00000" id="SystemLevelConstraint-backto-SystemLevelConstraintType3" style="stroke:#181818;stroke-width:1;"/><polygon fill="#FFFFFF" fill-opacity="0.00000" points="867.7,511.41,875.5228,528.6959,884.3298,520.5451,867.7,511.41" style="stroke:#181818;stroke-width:1;"/></g><!--reverse link UnsafeControlAction to Hazard--><g id="link_UnsafeControlAction_Hazard"><path codeLine="111" d="M1336.4893,745.2472 C1344.4193,808.6472 1354.88,892.37 1362.01,949.47 " fill="#FFFFFF" fill-opacity="0.00000" id="UnsafeControlAction-backto-Hazard" style="stroke:#181818;stroke-width:1;"/><polygon fill="#181818" points="1335,733.34,1331.7756,739.7901,1336.4893,745.2472,1339.7137,738.7972,1335,733.34" style="stroke:#181818;stroke-width:1;"/></g><!--reverse link UnsafeControlAction to SubHazard--><g id="link_UnsafeControlAction_SubHazard"><path codeLine="112" d="M1278.408,743.5703 C1263.628,766.1503 1254.04,780.81 1240.98,800.78 " fill="#FFFFFF" fill-opacity="0.00000" id="UnsafeControlAction-backto-SubHazard" style="stroke:#181818;stroke-width:1;"/><polygon fill="#181818" points="1284.98,733.53,1278.3472,736.3595,1278.408,743.5703,1285.0408,740.7408,1284.98,733.53" style="stroke:#181818;stroke-width:1;"/></g><!--reverse link Definition to UnsafeControlAction--><g id="link_Definition_UnsafeControlAction"><path codeLine="113" d="M1111.9766,190.7326 C1087.1166,205.8726 1079.73,216.01 1065,240.89 C1035.68,290.4 1056.68,313.43 1065,370.37 C1077.13,453.39 1066.5,485.81 1119,551.26 C1141.19,578.92 1171.85,601.07 1202.81,618.3 " fill="#FFFFFF" fill-opacity="0.00000" id="Definition-backto-UnsafeControlAction" style="stroke:#181818;stroke-width:1;"/><polygon fill="#FFFFFF" fill-opacity="0.00000" points="1127.35,181.37,1108.8557,185.6081,1115.0974,195.8571,1127.35,181.37" style="stroke:#181818;stroke-width:1;"/></g><text fill="#888888" font-family="sans-serif" font-size="10" lengthAdjust="spacing" textLength="68.4961" x="779.3811" y="1226.4022">Generated by</text><text fill="#888888" font-family="sans-serif" font-size="10" font-style="italic" lengthAdjust="spacing" textLength="43.833" x="851.0559" y="1226.4022">py2puml</text><!--SRC=[lLTDKzim4BtxLwXNff0Xt3ozf26qJ2am47h9P3IAlQOQRCaZoPs6Z_zUoTy9acEdm2cnv7txTlT9R_mf5UG-8IYJSCuKY0H2IXHSa-21t8D44OabU5uG4ocHL2av2ZXJWiTOAf45AXCWZwR5qYHGbBChSGOGhZG0Ul8G2a46WgPcnzS0GYzL26gTWe_AuBb-QFPY43wQCKNLkhqOreil_IZTLYiv5p2n5AIF8i4VWKbGYm9lsQ95yZ8avW97PIKR4OvgbveJi2pPHSaKchEPJEVdLvS-EaPFKX55WnUzU3QRdNwTJ7_uQDmiRnGRGaGPpIbMaBfR-fzEHIXJERRacGYWQhXfDDxkVb5cUnN-gkenOv94WBTQugEOIhMuopStsc2A9ol38538GVQq_fzJn9UJdpDyFPdFPpUw2rCJz8k8nJLHMeTieS6MPYouYSCuvlmXIrjlXpHGvjNFg7aj3sCaAUlV9PL20JadHr2xYk_aaOYmQF9QAaXUjooaxSx6N4geMdUX7vPkSBDjFpNEa1kGgVwbAnfNLLYEN44Ln_07OaEnr4f5wpRVlZ2xZP3wpFGs04O4vJglas7rZX7-iOkWLN0-iaWDFQDBpinTeOUNnOLacyNV-NnyLCwfNEz5RkmYrqhqAaC7TBPgYMKhoZhYdTssZQcpzRQ0PWwR0WOMSNrf9FgMVAtYWdwbbwA8vHw9n_Pcc4E24nryJzuZwqbHRhR2LUPwEDs5ErFPXFaM5w-jOYtYcgwfVgWD7nmUzZ6bDyKjRRgtFNyKbgCMhv-rriWxfE1rcT-NPnkABLydZ9LBi- -vdCiQPund3zBb4HeUQC-tvMLMfjOplWU3pLnx05JEuUqmlFqrqmF7DO3QbxkvvyZU3bDyhyHZhyCoXoMr-gA3GNtnxp7oVjhhSDttAykPqnjYpX_FR-mDiV63WIDz4uedNY_x7zIxtW3_erVRBHDnhZ-lq3TW8FI7VeXMQpGQfUjncYNnQFGF]--></g></svg>